<svg xmlns="http://www.w3.org/2000/svg"
     width="24"
     height="24"
     viewBox="0 0 24 24"
     shape-rendering="geometricPrecision"
     text-rendering="geometricPrecision"
     image-rendering="optimizeQuality"
     fill-rule="evenodd"
     clip-rule="evenodd">
  <g transform="translate(5.947, 0) scale(0.04692)">
    <path d="M68.08 39.9V12.09c0-3.36 1.38-6.37 3.55-8.54C73.82 1.36 76.87 0 80.17 0h97.66c3.32 0 6.37 1.39 8.53 3.56 2.17 2.17 3.56 5.21 3.56 8.53V39.9h29.59c21.17 0 38.49 17.34 38.49 38.49v394.62c0 21.18-17.31 38.49-38.49 38.49H38.49C17.33 511.5 0 494.15 0 473.01V78.39C0 57.2 17.3 39.9 38.49 39.9h29.59zM48.5 446.7V104.69c0-8.56 7.12-15.57 15.57-15.57h129.86c8.45 0 15.57 7.13 15.57 15.57V446.7c0 8.45-7 15.57-15.57 15.57H64.07c-8.57 0-15.57-7-15.57-15.57zm61.05-147.04H83.34c-5.56-.02-8.72-6.23-5.71-10.74l73.17-117.39c3.94-6.44 14.12-2.63 12.63 4.93l-19.94 76.18 31.08-.52c5.37-.1 8.69 5.72 6.03 10.33l-72.23 117.37c-3.81 6.32-13.68 2.93-12.72-4.46l13.9-75.7zM216.74 65.33H41.26c-8.68 0-15.82 7.15-15.82 15.82v389.09c0 8.7 7.12 15.82 15.82 15.82h175.48c8.67 0 15.82-7.15 15.82-15.82V81.15c0-8.68-7.11-15.82-15.82-15.82z"/>
  </g>
</svg>