<svg width="24" height="24" viewBox="0 0 24 24" xmlns="http://www.w3.org/2000/svg" stroke-width="1.41" stroke="#000000" fill="none">
  <path d="M2.17,0.89a1.23,1.23,0,0,0-1.19,1.31c0.16,2.82,0.94,9.71,4.66,14.01,4.45,5.18,10.25,6.96,16.20,6.70a1.26,1.26,0,0,0,1.19-1.25V17.14a1.88,1.88,0,0,0-1.45-1.82L18.59,14.66a1.88,1.88,0,0,0-1.96,0.80l-0.66,1.00a0.47,0.47,0,0,1-0.57,0.17C13.88,15.98,7.85,13.15,7.18,8.39a0.47,0.47,0,0,1,0.23-0.47l1.20-0.73a1.88,1.88,0,0,0,0.85-1.98L8.80,2.18a1.88,1.88,0,0,0-1.88-1.47Z"/>
  <line x1="15.44" y1="2.07" x2="22.19" y2="8.81"/>
  <line x1="15.44" y1="8.81" x2="22.19" y2="2.07"/>
</svg>